<svg xmlns="http://www.w3.org/2000/svg">

<!-- Logotipo -->


  <!-- Home -->
  <symbol id="home" viewBox="0 0 24 24">
    <svg xmlns="http://www.w3.org/2000/svg" class="icon icon-tabler icon-tabler-home" width="100%" height="100%" viewBox="0 0 24 24" stroke-width="1.5" stroke="currentColor" fill="none" stroke-linecap="round" stroke-linejoin="round">
      <path stroke="none" d="M0 0h24v24H0z" fill="none"/>
      <polyline points="5 12 3 12 12 3 21 12 19 12" />
      <path d="M5 12v7a2 2 0 0 0 2 2h10a2 2 0 0 0 2 -2v-7" />
      <path d="M9 21v-6a2 2 0 0 1 2 -2h2a2 2 0 0 1 2 2v6" />
    </svg>
  </symbol>

  <!-- Folder -->
  <symbol id="folder" viewBox="0 0 24 24">
    <svg xmlns="http://www.w3.org/2000/svg" class="icon icon-tabler icon-tabler-briefcase" width="100%" height="100%" viewBox="0 0 24 24" stroke-width="1.5" stroke="currentColor" fill="none" stroke-linecap="round" stroke-linejoin="round">
      <path stroke="none" d="M0 0h24v24H0z" fill="none"/>
      <rect x="3" y="7" width="18" height="13" rx="2" />
      <path d="M8 7v-2a2 2 0 0 1 2 -2h4a2 2 0 0 1 2 2v2" />
      <line x1="12" y1="12" x2="12" y2="12.01" />
      <path d="M3 13a20 20 0 0 0 18 0" />
    </svg>
  </symbol>

  <!-- about -->
  <symbol id="about" viewBox="0 0 24 24">
    <svg xmlns="http://www.w3.org/2000/svg" class="icon icon-tabler icon-tabler-user-exclamation" width="100%" height="100%" viewBox="0 0 24 24" stroke-width="1.5" stroke="currentColor" fill="none" stroke-linecap="round" stroke-linejoin="round">
      <path stroke="none" d="M0 0h24v24H0z" fill="none"/>
      <circle cx="9" cy="7" r="4" />
      <path d="M3 21v-2a4 4 0 0 1 4 -4h4a4 4 0 0 1 4 4v2" />
      <line x1="19" y1="7" x2="19" y2="10" />
      <line x1="19" y1="14" x2="19" y2="14.01" />
    </svg>
  </symbol>

  <!-- Sun -->
  <symbol id="sun" viewBox="0 0 24 24">
    <svg xmlns="http://www.w3.org/2000/svg" class="icon icon-tabler icon-tabler-sun" width="100%" height="100%" viewBox="0 0 24 24" stroke-width="1.5" stroke="currentColor" fill="none" stroke-linecap="round" stroke-linejoin="round">
      <path stroke="none" d="M0 0h24v24H0z" fill="none"/>
      <circle cx="12" cy="12" r="4" />
      <path d="M3 12h1m8 -9v1m8 8h1m-9 8v1m-6.4 -15.4l.7 .7m12.1 -.7l-.7 .7m0 11.4l.7 .7m-12.1 -.7l-.7 .7" />
    </svg>
  </symbol>

  <!-- Moon -->
  <symbol id="moon" viewBox="0 0 24 24">
    <svg xmlns="http://www.w3.org/2000/svg" class="icon icon-tabler icon-tabler-moon-stars" width="100%" height="100%" viewBox="0 0 24 24" stroke-width="1.5" stroke="currentColor" fill="none" stroke-linecap="round" stroke-linejoin="round">
      <path stroke="none" d="M0 0h24v24H0z" fill="none"/>
      <path d="M12 3c.132 0 .263 0 .393 0a7.5 7.5 0 0 0 7.92 12.446a9 9 0 1 1 -8.313 -12.454z" />
      <path d="M17 4a2 2 0 0 0 2 2a2 2 0 0 0 -2 2a2 2 0 0 0 -2 -2a2 2 0 0 0 2 -2" />
      <path d="M19 11h2m-1 -1v2" />
    </svg>
  </symbol>

  <!-- Heart line -->
  <symbol id="heart" viewBox="0 0 24 24">
    <svg xmlns="http://www.w3.org/2000/svg" class="icon icon-tabler icon-tabler-heart" width="100%" height="100%" viewBox="0 0 24 24" stroke-width="1.5" stroke="currentColor" fill="none" stroke-linecap="round" stroke-linejoin="round">
      <path stroke="none" d="M0 0h24v24H0z" fill="none"/>
      <path d="M19.5 13.572l-7.5 7.428l-7.5 -7.428m0 0a5 5 0 1 1 7.5 -6.566a5 5 0 1 1 7.5 6.572" />
    </svg>
  </symbol>

  <!-- Heart fill -->
  <symbol id="heart-fill"  viewBox="0 0 24 24">
    <svg xmlns="http://www.w3.org/2000/svg" viewBox="0 0 24 24">
      <path d="M12.001 4.52853C14.35 2.42 17.98 2.49 20.2426 4.75736C22.5053 7.02472 22.583 10.637 20.4786 12.993L11.9999 21.485L3.52138 12.993C1.41705 10.637 1.49571 7.01901 3.75736 4.75736C6.02157 2.49315 9.64519 2.41687 12.001 4.52853Z"></path>
    </svg>
  </symbol>

  <!-- Link -->
  <symbol id="link" viewBox="0 0 24 24">
    <svg xmlns="http://www.w3.org/2000/svg" viewBox="0 0 24 24" width="100%" height="100%" fill="currentColor"><path fill="none" d="M0 0h24v24H0z"/><path d="M18.364 15.536L16.95 14.12l1.414-1.414a5 5 0 1 0-7.071-7.071L9.879 7.05 8.464 5.636 9.88 4.222a7 7 0 0 1 9.9 9.9l-1.415 1.414zm-2.828 2.828l-1.415 1.414a7 7 0 0 1-9.9-9.9l1.415-1.414L7.05 9.88l-1.414 1.414a5 5 0 1 0 7.071 7.071l1.414-1.414 1.415 1.414zm-.708-10.607l1.415 1.415-7.071 7.07-1.415-1.414 7.071-7.07z"/></svg>
  </symbol>

  <!-- Calendar -->
  <symbol id="calendar" viewBox="0 0 24 24">
    <svg xmlns="http://www.w3.org/2000/svg" viewBox="0 0 24 24" width="100%" height="100%" fill="currentColor"><path fill="none" d="M0 0h24v24H0z"/><path d="M17 3h4a1 1 0 0 1 1 1v16a1 1 0 0 1-1 1H3a1 1 0 0 1-1-1V4a1 1 0 0 1 1-1h4V1h2v2h6V1h2v2zm-2 2H9v2H7V5H4v4h16V5h-3v2h-2V5zm5 6H4v8h16v-8z"/></svg>
  </symbol>

  <!-- Message -->
  <symbol id="message" viewBox="0 0 24 24">
    <svg xmlns="http://www.w3.org/2000/svg" viewBox="0 0 24 24" width="100%" height="100%" fill="currentColor"><path fill="none" d="M0 0h24v24H0z"/><path d="M10 3h4a8 8 0 1 1 0 16v3.5c-5-2-12-5-12-11.5a8 8 0 0 1 8-8zm2 14h2a6 6 0 1 0 0-12h-4a6 6 0 0 0-6 6c0 3.61 2.462 5.966 8 8.48V17z"/></svg>
  </symbol>

  <!-- Close -->
  <symbol id="close" viewBox="0 0 24 24">
    <svg xmlns="http://www.w3.org/2000/svg" class="icon icon-tabler icon-tabler-x" width="100%" height="100%" viewBox="0 0 24 24" stroke-width="1.5" stroke="currentColor" fill="none" stroke-linecap="round" stroke-linejoin="round">
      <path stroke="none" d="M0 0h24v24H0z" fill="none"/>
      <line x1="18" y1="6" x2="6" y2="18" />
      <line x1="6" y1="6" x2="18" y2="18" />
    </svg>
  </symbol>

  <!-- Menu -->
  <symbol id="menu" viewBox="0 0 24 24">
    <svg xmlns="http://www.w3.org/2000/svg" viewBox="0 0 24 24">
      <path d="M16 18V20H5V18H16ZM21 11V13H3V11H21ZM19 4V6H8V4H19Z"></path>
    </svg>
  </symbol>

  <!-- Arrow up -->
  <symbol id="arrow-top" viewBox="0 0 24 24">
    <svg xmlns="http://www.w3.org/2000/svg" viewBox="0 0 24 24">
      <path
        d="M12.9999 7.82843V20H10.9999V7.82843L5.63589 13.1924L4.22168 11.7782L11.9999 4L19.778 11.7782L18.3638 13.1924L12.9999 7.82843Z"
      ></path>
    </svg>
  </symbol>

  <!-- Location -->
  <symbol id="location"  viewBox="0 0 24 24" >
    <svg xmlns="http://www.w3.org/2000/svg" viewBox="0 0 24 24">
      <path d="M12 20.8995L16.9497 15.9497C19.6834 13.2161 19.6834 8.78392 16.9497 6.05025C14.2161 3.31658 9.78392 3.31658 7.05025 6.05025C4.31658 8.78392 4.31658 13.2161 7.05025 15.9497L12 20.8995ZM12 23.7279L5.63604 17.364C2.12132 13.8492 2.12132 8.15076 5.63604 4.63604C9.15076 1.12132 14.8492 1.12132 18.364 4.63604C21.8787 8.15076 21.8787 13.8492 18.364 17.364L12 23.7279ZM12 13C13.1046 13 14 12.1046 14 11C14 9.89543 13.1046 9 12 9C10.8954 9 10 9.89543 10 11C10 12.1046 10.8954 13 12 13ZM12 15C9.79086 15 8 13.2091 8 11C8 8.79086 9.79086 7 12 7C14.2091 7 16 8.79086 16 11C16 13.2091 14.2091 15 12 15Z"></path>
    </svg>
  </symbol>

  <!-- Eye search line -->
  <symbol id="search-eye"  viewBox="0 0 24 24">
    <svg xmlns="http://www.w3.org/2000/svg" viewBox="0 0 24 24">
      <path d="M18.031 16.6168L22.3137 20.8995L20.8995 22.3137L16.6168 18.031C15.0769 19.263 13.124 20 11 20C6.032 20 2 15.968 2 11C2 6.032 6.032 2 11 2C15.968 2 20 6.032 20 11C20 13.124 19.263 15.0769 18.031 16.6168ZM16.0247 15.8748C17.2475 14.6146 18 12.8956 18 11C18 7.1325 14.8675 4 11 4C7.1325 4 4 7.1325 4 11C4 14.8675 7.1325 18 11 18C12.8956 18 14.6146 17.2475 15.8748 16.0247L16.0247 15.8748ZM12.1779 7.17624C11.4834 7.48982 11 8.18846 11 9C11 10.1046 11.8954 11 13 11C13.8115 11 14.5102 10.5166 14.8238 9.82212C14.9383 10.1945 15 10.59 15 11C15 13.2091 13.2091 15 11 15C8.79086 15 7 13.2091 7 11C7 8.79086 8.79086 7 11 7C11.41 7 11.8055 7.06167 12.1779 7.17624Z"></path>
    </svg>
  </symbol>

  <!-- Star fill -->
  <symbol id="star-fill" viewBox="0 0 24 24">
    <svg xmlns="http://www.w3.org/2000/svg" viewBox="0 0 24 24">
      <path d="M12.0006 18.26L4.94715 22.2082L6.52248 14.2799L0.587891 8.7918L8.61493 7.84006L12.0006 0.5L15.3862 7.84006L23.4132 8.7918L17.4787 14.2799L19.054 22.2082L12.0006 18.26Z"></path>
    </svg>
  </symbol>

  <!-- TODO: Skills -->

  <!-- Html -->
  <symbol id="html" viewBox="0 0 17 17">
    <svg width="17" height="17" viewBox="0 0 17 17" fill="none" xmlns="http://www.w3.org/2000/svg">
      <path d="M3.66842 14.225L2.54492 1.62451H14.8899L13.7649 14.223L8.70992 15.6245L3.66842 14.225Z" fill="#E44F26"/>
      <path d="M8.71753 14.5533L12.8025 13.4208L13.7635 2.65479H8.71753V14.5533Z" fill="#F1662A"/>
      <path d="M8.71753 7.3282H6.67253L6.53153 5.7457H8.71753V4.2002H4.84253L4.87953 4.6152L5.25903 8.87369H8.71753V7.3282ZM8.71753 11.3417L8.71053 11.3437L6.98953 10.8792L6.87953 9.6467H5.32803L5.54453 12.0727L8.71053 12.9517L8.71753 12.9497V11.3417Z" fill="#EBEBEB"/>
      <path d="M8.71191 7.3282V8.87369H10.6149L10.4359 10.8782L8.71191 11.3432V12.9512L11.8804 12.0727L11.9034 11.8117L12.2664 7.7432L12.3044 7.3282H8.71191ZM8.71191 4.2002V5.7457H12.4449L12.4759 5.3987L12.5464 4.6152L12.5834 4.2002H8.71191Z" fill="white"/>
    </svg>
  </symbol>

  <!-- Css -->
  <symbol id="css" viewBox="0 0 16 16">
    <svg width="16" height="16" viewBox="0 0 16 16" fill="none" xmlns="http://www.w3.org/2000/svg">
      <path d="M2.35172 14.2653L1.09497 0.168945H14.905L13.647 14.2632L7.9916 15.8311L2.35172 14.2653Z" fill="#1572B6"/>
      <path d="M8.00024 14.6325L12.5701 13.3655L13.6452 1.32129H8.00024V14.6325Z" fill="#33A9DC"/>
      <path d="M8.00024 6.42845H10.288L10.446 4.65807H8.00024V2.9292H12.3355L12.294 3.39307L11.869 8.15732H8.00024V6.42845Z" fill="white"/>
      <path d="M8.01037 10.9185L8.00274 10.9207L6.07737 10.4008L5.95424 9.02197H4.21899L4.46112 11.7366L8.00249 12.7195L8.01037 12.7172V10.9185Z" fill="#EBEBEB"/>
      <path d="M10.1409 8.08447L9.93264 10.3997L8.00439 10.9202V12.719L11.5486 11.7367L11.5746 11.4446L11.8754 8.08447H10.1409Z" fill="white"/>
      <path d="M8.00604 2.9292V4.65807H3.83004L3.79542 4.26957L3.71667 3.39307L3.67529 2.9292H8.00604ZM8.00017 6.4287V8.15757H6.09904L6.06442 7.76907L5.98554 6.89257L5.94429 6.4287H8.00017Z" fill="#EBEBEB"/>
    </svg>
  </symbol>

  <!-- JavaScript -->
  <symbol id="javascript" viewBox="0 0 17 17">
    <svg width="17" height="17" viewBox="0 0 17 17" fill="none" xmlns="http://www.w3.org/2000/svg">
      <g clip-path="url(#clip0_1905_68)">
        <path d="M12.6709 0.414062H4.1709C2.09983 0.414062 0.420898 2.09299 0.420898 4.16406V12.6641C0.420898 14.7351 2.09983 16.4141 4.1709 16.4141H12.6709C14.742 16.4141 16.4209 14.7351 16.4209 12.6641V4.16406C16.4209 2.09299 14.742 0.414062 12.6709 0.414062Z" fill="#F0DB4F"/>
        <path d="M4.62799 13.785L5.85237 13.044C6.08862 13.4628 6.30349 13.8172 6.81893 13.8172C7.31299 13.8172 7.62449 13.624 7.62449 12.8722V7.75983H9.12812V12.8935C9.12812 14.4508 8.21524 15.1596 6.88337 15.1596C5.68055 15.1596 4.98237 14.5367 4.62793 13.7849M9.9448 13.6239L11.1691 12.9151C11.4914 13.4414 11.9102 13.828 12.6512 13.828C13.2743 13.828 13.6716 13.5165 13.6716 13.0869C13.6716 12.5714 13.2634 12.3888 12.5761 12.0881L12.2002 11.927C11.1154 11.4652 10.3958 10.8852 10.3958 9.66083C10.3958 8.53308 11.2551 7.67383 12.5976 7.67383C13.5535 7.67383 14.2409 8.00683 14.7349 8.87677L13.5642 9.62858C13.3064 9.16677 13.0272 8.9842 12.5976 8.9842C12.1572 8.9842 11.878 9.26345 11.878 9.62858C11.878 10.0796 12.1572 10.2623 12.8016 10.5416L13.1775 10.7026C14.4556 11.2505 15.1752 11.8088 15.1752 13.0654C15.1752 14.4188 14.1119 15.1598 12.6835 15.1598C11.2873 15.1598 10.3851 14.4939 9.9448 13.6239Z" fill="#323330"/>
      </g>
      <defs>
        <clipPath id="clip0_1905_68">
          <rect width="16" height="16" fill="white" transform="translate(0.420898 0.414062)"/>
        </clipPath>
      </defs>
    </svg>
  </symbol>

  <!-- TypeScript -->
  <symbol id="typescript" viewBox="0 0 17 17">
    <svg width="17" height="17" viewBox="0 0 17 17" fill="none" xmlns="http://www.w3.org/2000/svg">
      <g clip-path="url(#clip0_1905_65)">
        <path d="M1.53003 0.959961L15.03 0.959961C15.7204 0.959961 16.28 1.51959 16.28 2.20996V15.71C16.28 16.4003 15.7204 16.96 15.03 16.96H1.53003C0.839654 16.96 0.280029 16.4003 0.280029 15.71L0.280029 2.20996C0.280029 1.51959 0.839654 0.959961 1.53003 0.959961Z" fill="#3178C6"/>
        <path d="M9.6874 13.4896V15.2159C9.96815 15.3598 10.3002 15.4676 10.6835 15.5396C11.0668 15.6115 11.4708 15.6475 11.8956 15.6475C12.3095 15.6475 12.7027 15.6079 13.0752 15.5288C13.4477 15.4496 13.7744 15.3193 14.0551 15.1377C14.3358 14.9561 14.5581 14.7187 14.7219 14.4256C14.8857 14.1325 14.9675 13.7702 14.9675 13.3386C14.9675 13.0258 14.9207 12.7515 14.8272 12.516C14.7346 12.282 14.597 12.0685 14.4222 11.8875C14.2459 11.7041 14.0344 11.5396 13.7879 11.3939C13.5413 11.2483 13.2633 11.1107 12.9537 10.9813C12.727 10.8877 12.5237 10.797 12.3437 10.7088C12.1637 10.6207 12.0107 10.5308 11.8848 10.4391C11.7588 10.3474 11.6616 10.2503 11.5932 10.1478C11.5248 10.0453 11.4907 9.92934 11.4907 9.79984C11.4907 9.68115 11.5212 9.57421 11.5824 9.4789C11.6436 9.38359 11.73 9.30177 11.8416 9.23346C11.9532 9.16509 12.0899 9.11209 12.2519 9.07427C12.4138 9.03652 12.5938 9.01765 12.7918 9.01765C12.9358 9.01765 13.0878 9.02846 13.248 9.05002C13.4082 9.07159 13.5692 9.10484 13.7312 9.14984C13.8927 9.1946 14.0506 9.25141 14.2036 9.31977C14.3519 9.38551 14.4938 9.46496 14.6274 9.55709V7.94415C14.3647 7.84346 14.0776 7.76884 13.7663 7.72027C13.455 7.67171 13.0977 7.64746 12.6946 7.64746C12.2843 7.64746 11.8956 7.69152 11.5285 7.77965C11.1613 7.86771 10.8383 8.00527 10.5593 8.19227C10.2804 8.37934 10.06 8.61759 9.89797 8.90709C9.73603 9.19659 9.65503 9.54271 9.65503 9.94552C9.65503 10.4598 9.80347 10.8985 10.1005 11.2618C10.3974 11.625 10.8482 11.9325 11.4528 12.1842C11.6761 12.2751 11.8975 12.3705 12.1169 12.4701C12.3221 12.5636 12.4993 12.6607 12.6487 12.7614C12.7981 12.8621 12.916 12.9718 13.0023 13.0905C13.0887 13.2091 13.1319 13.344 13.1319 13.4951C13.1326 13.6038 13.1047 13.7108 13.0509 13.8053C12.997 13.9005 12.915 13.9833 12.8053 14.0534C12.6955 14.1235 12.5587 14.1783 12.395 14.2179C12.2312 14.2575 12.0395 14.2773 11.82 14.2773C11.4457 14.2773 11.075 14.2116 10.7078 14.0803C10.3407 13.9491 10.0005 13.7522 9.6874 13.4896ZM6.81015 9.19384H9.03003V7.77246H2.84253V9.19384H5.05159V15.5225H6.81015V9.19384Z" fill="white"/>
      </g>
      <defs>
        <clipPath id="clip0_1905_65">
          <rect width="16" height="16" fill="white" transform="translate(0.280029 0.959961)"/>
        </clipPath>
      </defs>
    </svg>
  </symbol>

  <!-- Angular -->
  <symbol id="angular" viewBox="0 0 16 16">
    <svg width="16" height="16" viewBox="0 0 16 16" fill="none" xmlns="http://www.w3.org/2000/svg">
      <path d="M7.99991 1L1.48291 3.324L2.47691 11.941L7.99991 15L13.5229 11.941L14.5169 3.324L7.99991 1Z" fill="#DD0031"/>
      <path d="M8 1V2.554V2.547V15L13.523 11.941L14.517 3.324L8 1Z" fill="#C3002F"/>
      <path d="M8.00002 2.54688L3.92603 11.6819H5.44503L6.26402 9.63787H9.72202L10.541 11.6819H12.06L8.00002 2.54688ZM9.19002 8.37787H6.81002L8.00002 5.51487L9.19002 8.37787Z" fill="white"/>
    </svg>
  </symbol>

  <!-- Vue js -->
  <symbol id="vuejs" viewBox="0 0 256 221">
    <svg
      width="100%"
      height="100%"
      viewBox="0 0 256 221"
      version="1.1"
      xmlns="http://www.w3.org/2000/svg"
      xmlns:xlink="http://www.w3.org/1999/xlink"
      preserveAspectRatio="xMidYMid"
    >
      <g>
        <path
          d="M204.8,0 L256,0 L128,220.8 L0,0 L50.56,0 L97.92,0 L128,51.2 L157.44,0 L204.8,0 Z"
          fill="#41B883"
        ></path>
        <path
          d="M0,0 L128,220.8 L256,0 L204.8,0 L128,132.48 L50.56,0 L0,0 Z"
          fill="#41B883"
        ></path>
        <path
          d="M50.56,0 L128,133.12 L204.8,0 L157.44,0 L128,51.2 L97.92,0 L50.56,0 Z"
          fill="#35495E"
        ></path>
      </g>
    </svg>
  </symbol>

  <!-- React js -->
  <symbol id="reactjs" viewBox="0 0 256 228">
    <svg width="100%" height="100%" viewBox="0 0 256 228" version="1.1" xmlns="http://www.w3.org/2000/svg" xmlns:xlink="http://www.w3.org/1999/xlink" preserveAspectRatio="xMidYMid">
      <g>
        <path d="M210.483381,73.8236374 C207.827698,72.9095503 205.075867,72.0446761 202.24247,71.2267368 C202.708172,69.3261098 203.135596,67.4500894 203.515631,65.6059664 C209.753843,35.3248922 205.675082,10.9302478 191.747328,2.89849283 C178.392359,-4.80289661 156.551327,3.22703567 134.492936,22.4237776 C132.371761,24.2697233 130.244662,26.2241201 128.118477,28.2723861 C126.701777,26.917204 125.287358,25.6075897 123.876584,24.3549348 C100.758745,3.82852863 77.5866802,-4.82157937 63.6725966,3.23341515 C50.3303869,10.9571328 46.3792156,33.8904224 51.9945178,62.5880206 C52.5367729,65.3599011 53.1706189,68.1905639 53.8873982,71.068617 C50.6078941,71.9995641 47.4418534,72.9920277 44.4125156,74.0478303 C17.3093297,83.497195 0,98.3066828 0,113.667995 C0,129.533287 18.5815786,145.446423 46.8116526,155.095373 C49.0394553,155.856809 51.3511025,156.576778 53.7333796,157.260293 C52.9600965,160.37302 52.2875179,163.423318 51.7229345,166.398431 C46.3687351,194.597975 50.5500231,216.989464 63.8566899,224.664425 C77.6012619,232.590464 100.66852,224.443422 123.130185,204.809231 C124.905501,203.257196 126.687196,201.611293 128.472081,199.886102 C130.785552,202.113904 133.095375,204.222319 135.392897,206.199955 C157.14963,224.922338 178.637969,232.482469 191.932332,224.786092 C205.663234,216.837268 210.125675,192.78347 204.332202,163.5181 C203.88974,161.283006 203.374826,158.99961 202.796573,156.675661 C204.416503,156.196743 206.006814,155.702335 207.557482,155.188332 C236.905331,145.46465 256,129.745175 256,113.667995 C256,98.2510906 238.132466,83.3418093 210.483381,73.8236374 L210.483381,73.8236374 Z M204.118035,144.807565 C202.718197,145.270987 201.281904,145.718918 199.818271,146.153177 C196.578411,135.896354 192.205739,124.989735 186.854729,113.72131 C191.961041,102.721277 196.164656,91.9540963 199.313837,81.7638014 C201.93261,82.5215915 204.474374,83.3208483 206.923636,84.1643056 C230.613348,92.3195488 245.063763,104.377206 245.063763,113.667995 C245.063763,123.564379 229.457753,136.411268 204.118035,144.807565 L204.118035,144.807565 Z M193.603754,165.642007 C196.165567,178.582766 196.531475,190.282717 194.834536,199.429057 C193.309843,207.64764 190.243595,213.12715 186.452366,215.321689 C178.384612,219.991462 161.131788,213.921395 142.525146,197.909832 C140.392124,196.074366 138.243609,194.114502 136.088259,192.040261 C143.301619,184.151133 150.510878,174.979732 157.54698,164.793993 C169.922699,163.695814 181.614905,161.900447 192.218042,159.449363 C192.740247,161.555956 193.204126,163.621993 193.603754,165.642007 L193.603754,165.642007 Z M87.2761866,214.514686 C79.3938934,217.298414 73.1160375,217.378157 69.3211631,215.189998 C61.2461189,210.532528 57.8891498,192.554265 62.4682434,168.438039 C62.9927272,165.676183 63.6170041,162.839142 64.3365173,159.939216 C74.8234575,162.258154 86.4299951,163.926841 98.8353334,164.932519 C105.918826,174.899534 113.336329,184.06091 120.811247,192.08264 C119.178102,193.65928 117.551336,195.16028 115.933685,196.574699 C106.001303,205.256705 96.0479605,211.41654 87.2761866,214.514686 L87.2761866,214.514686 Z M50.3486141,144.746959 C37.8658105,140.48046 27.5570398,134.935332 20.4908634,128.884403 C14.1414664,123.446815 10.9357817,118.048415 10.9357817,113.667995 C10.9357817,104.34622 24.8334611,92.4562517 48.0123604,84.3748281 C50.8247961,83.3942121 53.7689223,82.4701001 56.8242337,81.6020363 C60.0276398,92.0224477 64.229889,102.917218 69.3011135,113.93411 C64.1642716,125.11459 59.9023288,136.182975 56.6674809,146.725506 C54.489347,146.099407 52.3791089,145.440499 50.3486141,144.746959 L50.3486141,144.746959 Z M62.7270678,60.4878073 C57.9160346,35.9004118 61.1112387,17.3525532 69.1516515,12.6982729 C77.7160924,7.74005624 96.6544653,14.8094222 116.614922,32.5329619 C117.890816,33.6657739 119.171723,34.8514442 120.456275,36.0781256 C113.018267,44.0647686 105.66866,53.1573386 98.6480514,63.0655695 C86.6081646,64.1815215 75.0831931,65.9741531 64.4868907,68.3746571 C63.8206914,65.6948233 63.2305903,63.0619242 62.7270678,60.4878073 L62.7270678,60.4878073 Z M173.153901,87.7550367 C170.620796,83.3796304 168.020249,79.1076627 165.369124,74.9523483 C173.537126,75.9849113 181.362914,77.3555864 188.712066,79.0329319 C186.505679,86.1041206 183.755673,93.4974728 180.518546,101.076741 C178.196419,96.6680702 175.740322,92.2229454 173.153901,87.7550367 L173.153901,87.7550367 Z M128.122121,43.8938899 C133.166461,49.3588189 138.218091,55.4603279 143.186789,62.0803968 C138.179814,61.8439007 133.110868,61.720868 128.000001,61.720868 C122.937434,61.720868 117.905854,61.8411667 112.929865,62.0735617 C117.903575,55.515009 122.99895,49.4217021 128.122121,43.8938899 L128.122121,43.8938899 Z M82.8018984,87.830679 C80.2715265,92.2183886 77.8609975,96.6393627 75.5753239,101.068539 C72.3906004,93.5156998 69.6661103,86.0886276 67.440586,78.9171899 C74.7446255,77.2826781 82.5335049,75.9461789 90.6495601,74.9332099 C87.9610684,79.1268011 85.3391054,83.4302106 82.8018984,87.8297677 L82.8018984,87.830679 L82.8018984,87.830679 Z M90.8833221,153.182899 C82.4979621,152.247395 74.5919739,150.979704 67.289757,149.390303 C69.5508242,142.09082 72.3354636,134.505173 75.5876271,126.789657 C77.8792246,131.215644 80.2993228,135.638441 82.8451877,140.03572 L82.8456433,140.03572 C85.4388987,144.515476 88.1255676,148.90364 90.8833221,153.182899 L90.8833221,153.182899 Z M128.424691,184.213105 C123.24137,178.620587 118.071264,172.434323 113.021912,165.780078 C117.923624,165.972373 122.921029,166.0708 128.000001,166.0708 C133.217953,166.0708 138.376211,165.953235 143.45336,165.727219 C138.468257,172.501308 133.434855,178.697141 128.424691,184.213105 L128.424691,184.213105 Z M180.622896,126.396409 C184.044571,134.195313 186.929004,141.741317 189.219234,148.9164 C181.796719,150.609693 173.782736,151.973534 165.339049,152.986959 C167.996555,148.775595 170.619884,144.430263 173.197646,139.960532 C175.805484,135.438399 178.28163,130.90943 180.622896,126.396409 L180.622896,126.396409 Z M163.724586,134.496971 C159.722835,141.435557 155.614455,148.059271 151.443648,154.311611 C143.847063,154.854776 135.998946,155.134562 128.000001,155.134562 C120.033408,155.134562 112.284171,154.887129 104.822013,154.402745 C100.48306,148.068386 96.285368,141.425078 92.3091341,134.556664 L92.3100455,134.556664 C88.3442923,127.706935 84.6943232,120.799333 81.3870228,113.930466 C84.6934118,107.045648 88.3338117,100.130301 92.276781,93.292874 L92.2758697,93.294241 C96.2293193,86.4385872 100.390102,79.8276317 104.688954,73.5329157 C112.302398,72.9573964 120.109505,72.6571055 127.999545,72.6571055 L128.000001,72.6571055 C135.925583,72.6571055 143.742714,72.9596746 151.353879,73.5402067 C155.587114,79.7888993 159.719645,86.3784378 163.688588,93.2350031 C167.702644,100.168578 171.389978,107.037901 174.724618,113.77508 C171.400003,120.627999 167.720871,127.566587 163.724586,134.496971 L163.724586,134.496971 Z M186.284677,12.3729198 C194.857321,17.3165548 198.191049,37.2542268 192.804953,63.3986692 C192.461372,65.0669011 192.074504,66.7661189 191.654369,68.4881206 C181.03346,66.0374921 169.500286,64.2138746 157.425315,63.0810626 C150.391035,53.0639249 143.101577,43.9572289 135.784778,36.073113 C137.751934,34.1806885 139.716356,32.3762092 141.672575,30.673346 C160.572216,14.2257007 178.236518,7.73185406 186.284677,12.3729198 L186.284677,12.3729198 Z M128.000001,90.8080696 C140.624975,90.8080696 150.859926,101.042565 150.859926,113.667995 C150.859926,126.292969 140.624975,136.527922 128.000001,136.527922 C115.375026,136.527922 105.140075,126.292969 105.140075,113.667995 C105.140075,101.042565 115.375026,90.8080696 128.000001,90.8080696 L128.000001,90.8080696 Z" fill="#00D8FF"></path>
        </g>
    </svg>
  </symbol>

  <!-- Python -->
  <symbol id="python" viewBox="0 0 256 256">
    <svg width="256" height="256" viewBox="0 0 256 256" fill="none" xmlns="http://www.w3.org/2000/svg">
      <g clip-path="url(#clip0_1805_69)">
        <path d="M196 0H60C26.8629 0 0 26.8629 0 60V196C0 229.137 26.8629 256 60 256H196C229.137 256 256 229.137 256 196V60C256 26.8629 229.137 0 196 0Z" fill="#242938"/>
        <path d="M127.279 29C76.507 29 79.677 51.018 79.677 51.018L79.734 73.828H128.185V80.678H60.489C60.489 80.678 28 76.992 28 128.221C28 179.451 56.357 177.635 56.357 177.635H73.281V153.862C73.281 153.862 72.369 125.505 101.186 125.505H149.24C149.24 125.505 176.239 125.941 176.239 99.411V55.546C176.239 55.546 180.338 29 127.279 29ZM100.563 44.339C101.708 44.3378 102.842 44.5625 103.9 45.0001C104.958 45.4378 105.92 46.0798 106.729 46.8895C107.539 47.6992 108.181 48.6606 108.619 49.7187C109.057 50.7769 109.281 51.9109 109.28 53.056C109.281 54.201 109.056 55.3349 108.619 56.3929C108.181 57.451 107.539 58.4123 106.729 59.2218C105.919 60.0314 104.958 60.6734 103.9 61.111C102.842 61.5486 101.708 61.7732 100.563 61.772C99.4181 61.7731 98.2842 61.5483 97.2263 61.1107C96.1683 60.673 95.2071 60.0311 94.3975 59.2215C93.5879 58.4119 92.946 57.4507 92.5083 56.3927C92.0707 55.3348 91.8459 54.2009 91.847 53.056C91.8458 51.911 92.0704 50.777 92.508 49.719C92.9456 48.6609 93.5876 47.6995 94.3972 46.8899C95.2067 46.0802 96.168 45.4381 97.2261 45.0004C98.2841 44.5627 99.418 44.3379 100.563 44.339Z" fill="url(#paint0_linear_1805_69)"/>
        <path d="M128.721 227.958C179.493 227.958 176.323 205.941 176.323 205.941L176.266 183.13H127.815V176.281H195.511C195.511 176.281 228 179.966 228 128.736C228 77.5059 199.643 79.3229 199.643 79.3229H182.719V103.096C182.719 103.096 183.631 131.453 154.814 131.453H106.76C106.76 131.453 79.7601 131.016 79.7601 157.546V201.412C79.7601 201.412 75.661 227.958 128.721 227.958ZM155.437 212.619C154.292 212.62 153.158 212.395 152.1 211.958C151.042 211.52 150.081 210.878 149.271 210.069C148.461 209.259 147.819 208.298 147.381 207.24C146.944 206.182 146.719 205.048 146.72 203.903C146.719 202.758 146.944 201.624 147.381 200.566C147.819 199.508 148.461 198.546 149.271 197.736C150.08 196.927 151.042 196.285 152.1 195.847C153.158 195.409 154.292 195.185 155.437 195.186C156.582 195.185 157.716 195.41 158.774 195.847C159.832 196.285 160.794 196.927 161.603 197.737C162.413 198.546 163.055 199.508 163.493 200.566C163.93 201.624 164.155 202.758 164.154 203.903C164.155 205.048 163.93 206.182 163.492 207.24C163.055 208.298 162.413 209.259 161.603 210.068C160.793 210.878 159.832 211.52 158.774 211.958C157.716 212.395 156.582 212.62 155.437 212.619Z" fill="url(#paint1_linear_1805_69)"/>
      </g>
      <defs>
        <linearGradient id="paint0_linear_1805_69" x1="47.22" y1="46.896" x2="146.333" y2="145.02" gradientUnits="userSpaceOnUse">
        <stop stop-color="#387EB8"/>
        <stop offset="1" stop-color="#366994"/>
        </linearGradient>
        <linearGradient id="paint1_linear_1805_69" x1="108.056" y1="109.905" x2="214.492" y2="210.522" gradientUnits="userSpaceOnUse">
          <stop stop-color="#FFE052"/>
          <stop offset="1" stop-color="#FFC331"/>
        </linearGradient>
        <clipPath id="clip0_1805_69">
          <rect width="256" height="256" fill="white"/>
        </clipPath>
      </defs>
    </svg>
  </symbol>

  <!-- Bootstrap -->
  <symbol id="bootstrap" viewBox="0 0 256 204">
    <svg
      width="256"
      height="204"
      viewBox="0 0 256 204"
      version="1.1"
      xmlns="http://www.w3.org/2000/svg"
      preserveAspectRatio="xMidYMid"
    >
      <title>Bootstrap</title>
      <g>
        <path
          d="M53.1720678,0 C38.5648814,0 27.7564746,12.7848136 28.2402712,26.6500339 C28.7045424,39.9707119 28.1014237,57.2225085 23.7581017,71.291661 C19.4017627,85.4020339 12.0341695,94.340339 0,95.488 L0,108.444203 C12.0341695,109.591864 19.4017627,118.530169 23.7581017,132.640542 C28.1014237,146.709695 28.7045424,163.961492 28.2402712,177.282169 C27.7564746,191.14522 38.5648814,203.932203 53.1742373,203.932203 L202.847458,203.932203 C217.454644,203.932203 228.260881,191.14739 227.777085,177.282169 C227.312814,163.961492 227.915932,146.709695 232.259254,132.640542 C236.617763,118.530169 243.965831,109.591864 256,108.444203 L256,95.488 C243.965831,94.340339 236.617763,85.4020339 232.259254,71.291661 C227.915932,57.224678 227.312814,39.9707119 227.777085,26.6500339 C228.260881,12.7869831 217.454644,0 202.847458,0 L53.1698983,0 L53.1720678,0 Z M173.559322,125.533288 C173.559322,144.624814 159.31878,156.20339 135.686508,156.20339 L95.4576271,156.20339 C93.0612729,156.20339 91.1186441,154.260761 91.1186441,151.864407 L91.1186441,52.0677966 C91.1186441,49.6714424 93.0612729,47.7288136 95.4576271,47.7288136 L135.456542,47.7288136 C155.162034,47.7288136 168.094373,58.4027119 168.094373,74.7910508 C168.094373,86.2936949 159.394712,96.5922712 148.31078,98.3951186 L148.31078,98.9960678 C163.399593,100.65139 173.559322,111.099661 173.559322,125.533288 Z M131.299797,61.4833898 L108.361763,61.4833898 L108.361763,93.8825763 L127.681085,93.8825763 C142.615864,93.8825763 150.851254,87.8687458 150.851254,77.1189153 C150.851254,67.0459661 143.770034,61.4833898 131.299797,61.4833898 L131.299797,61.4833898 Z M108.361763,106.738983 L108.361763,142.444475 L132.143729,142.444475 C147.692475,142.444475 155.930034,136.205017 155.930034,124.478915 C155.930034,112.750644 147.462508,106.736814 131.143593,106.736814 L108.361763,106.736814 L108.361763,106.738983 Z"
          fill="#7E13F8"
        ></path>
      </g>
    </svg>
  </symbol>

  <!-- Tailwind Css -->
  <symbol id="tailwindcss" viewBox="0 0 128 128">
    <svg width="128" height="128" viewBox="0 0 128 128" fill="none" xmlns="http://www.w3.org/2000/svg">
      <g clip-path="url(#clip0_1804_67)">
        <path d="M64.004 25.6021C46.937 25.6021 36.274 34.1321 32.004 51.1991C38.402 42.6681 45.871 39.4691 54.402 41.6021C59.273 42.8161 62.754 46.3481 66.609 50.2621C72.883 56.6291 80.145 64.0001 96.004 64.0001C113.07 64.0001 123.734 55.469 128.004 38.3981C121.605 46.9341 114.137 50.1331 105.605 48.0001C100.735 46.7851 97.258 43.2541 93.398 39.3401C87.128 32.9731 79.868 25.6021 64.004 25.6021ZM32.004 64.0001C14.938 64.0001 4.27403 72.5311 0.00402832 89.6021C6.40203 81.0661 13.87 77.8671 22.402 80.0001C27.273 81.2151 30.754 84.7461 34.609 88.6601C40.883 95.0271 48.145 102.398 64.004 102.398C81.07 102.398 91.734 93.8681 96.004 76.8011C89.605 85.3321 82.137 88.5311 73.605 86.3981C68.735 85.1841 65.258 81.6521 61.398 77.7381C55.128 71.3711 47.868 64.0001 32.004 64.0001Z" fill="#38BDF8"/>
      </g>
      <defs>
        <clipPath id="clip0_1804_67">
          <rect width="128" height="128" fill="white"/>
        </clipPath>
      </defs>
    </svg>
  </symbol>

  <!-- Sass -->
  <symbol id="sass" viewBox="0 0 256 192">
    <svg
      width="100%"
      height="100%"
      viewBox="0 0 256 192"
      version="1.1"
      xmlns="http://www.w3.org/2000/svg"
      xmlns:xlink="http://www.w3.org/1999/xlink"
      preserveAspectRatio="xMidYMid"
      class="svg-icon"
    >
      <g fill="#CD6799">
        <path
          d="M220.281239,110.513661 C211.374863,110.560291 203.634244,112.705282 197.152641,115.876138 C194.774499,111.166485 192.396357,106.969763 191.976685,103.892168 C191.510383,100.301639 190.95082,98.1100182 191.510383,93.8200364 C192.069945,89.5300546 194.587978,83.4214936 194.541348,82.9551913 C194.494718,82.4888889 193.981785,80.2972678 188.852459,80.2506375 C183.723133,80.2040073 179.29326,81.2298725 178.780328,82.5821494 C178.267395,83.9344262 177.28816,87.0120219 176.635337,90.182878 C175.749362,94.8459016 166.376685,111.492896 161.014208,120.21275 C159.288889,116.808743 157.796721,113.824408 157.47031,111.446266 C157.004007,107.855738 156.444444,105.664117 157.004007,101.374135 C157.56357,97.084153 160.081603,90.975592 160.034973,90.5092896 C159.988342,90.0429872 159.47541,87.8513661 154.346084,87.8047359 C149.216758,87.7581056 144.786885,88.7839709 144.273953,90.1362477 C143.76102,91.4885246 143.201457,94.6593807 142.128962,97.7369763 C141.056466,100.814572 128.606193,128.606193 125.342077,135.78725 C123.663388,139.471038 122.217851,142.408743 121.191985,144.413843 L121.191985,144.413843 C121.191985,144.413843 121.145355,144.553734 121.005464,144.786885 C120.11949,146.512204 119.606557,147.444809 119.606557,147.444809 C119.606557,147.444809 119.606557,147.444809 119.606557,147.491439 C118.907104,148.750455 118.16102,149.916211 117.787978,149.916211 C117.508197,149.916211 116.995264,146.558834 117.881239,141.989071 C119.746448,132.336612 124.176321,117.321676 124.12969,116.808743 C124.12969,116.528962 124.969035,113.917668 121.238616,112.565392 C117.601457,111.213115 116.295811,113.451366 115.969399,113.451366 C115.642987,113.451366 115.409836,114.24408 115.409836,114.24408 C115.409836,114.24408 119.466667,97.3639344 107.669217,97.3639344 C100.301639,97.3639344 90.1362477,105.430965 85.1001821,112.705282 C81.929326,114.430601 75.1679417,118.11439 67.940255,122.07796 C65.189071,123.616758 62.3446266,125.155556 59.6867031,126.601093 C59.5001821,126.414572 59.3136612,126.181421 59.1271403,125.9949 C44.8582878,110.746812 18.4655738,99.9752277 19.5846995,79.5045537 C20.0043716,72.0437158 22.5690346,52.4590164 70.2717668,28.6775956 C109.534426,9.32604736 140.776685,14.6885246 146.185792,26.579235 C153.926412,43.5526412 129.445537,75.0746812 88.8772313,79.6444444 C73.3959927,81.3697632 65.2823315,75.4010929 63.2306011,73.1628415 C61.0856102,70.8313297 60.7591985,70.691439 59.9664845,71.1577413 C58.6608379,71.8571949 59.5001821,73.9555556 59.9664845,75.1679417 C61.1788707,78.3387978 66.168306,83.9344262 74.6083789,86.6856102 C82.0692168,89.1103825 100.208379,90.4626594 122.17122,81.9759563 C146.745355,72.463388 165.957013,46.0240437 160.314754,23.8746812 C154.672495,1.3989071 117.368306,-6.01530055 82.0692168,6.52823315 C61.0856102,13.989071 38.3300546,25.7398907 21.9628415,41.0346084 C2.51803279,59.2204007 -0.559562842,75.028051 0.699453552,81.6495446 C5.22258652,105.151184 37.6306011,120.445902 50.5938069,131.777049 C49.9409836,132.150091 49.3347905,132.476503 48.8218579,132.756284 C42.340255,135.97377 17.6262295,148.890346 11.4710383,162.553005 C4.47650273,178.034244 12.5901639,189.13224 17.9526412,190.624408 C34.5996357,195.240801 51.7129326,186.940619 60.8990893,173.23133 C70.0852459,159.52204 68.9661202,141.70929 64.7227687,133.548998 C64.6761384,133.455738 64.6295082,133.362477 64.5362477,133.269217 C66.2149362,132.289982 67.940255,131.264117 69.6189435,130.284882 C72.9296903,128.326412 76.1938069,126.507832 78.9916211,125.015665 C77.4061931,129.352277 76.2404372,134.528233 75.6808743,141.989071 C74.9814208,150.755556 78.571949,162.133333 83.2816029,166.609836 C85.3799636,168.568306 87.8513661,168.614936 89.4367942,168.614936 C94.9391621,168.614936 97.4105647,164.045173 100.161749,158.636066 C103.519126,152.014572 106.550091,144.320583 106.550091,144.320583 C106.550091,144.320583 102.773042,165.117668 113.031694,165.117668 C116.762113,165.117668 120.539162,160.268124 122.217851,157.796721 L122.217851,157.843352 C122.217851,157.843352 122.311111,157.703461 122.497632,157.377049 C122.870674,156.770856 123.103825,156.397814 123.103825,156.397814 L123.103825,156.304554 C124.595993,153.69326 127.95337,147.77122 132.942805,137.93224 C139.377778,125.248816 145.579599,109.394536 145.579599,109.394536 C145.579599,109.394536 146.139162,113.264845 148.051002,119.699818 C149.170128,123.476867 151.501639,127.626958 153.366849,131.637158 C151.874681,133.735519 150.942077,134.901275 150.942077,134.901275 C150.942077,134.901275 150.942077,134.901275 150.988707,134.947905 C149.776321,136.533333 148.470674,138.258652 147.025137,139.937341 C141.942441,145.999271 135.88051,152.947177 135.041166,154.952277 C134.061931,157.330419 134.295082,159.055738 136.160291,160.454645 C137.512568,161.48051 139.937341,161.620401 142.408743,161.48051 C146.978506,161.154098 150.195993,160.034973 151.781421,159.335519 C154.252823,158.449545 157.143898,157.097268 159.848452,155.092168 C164.837887,151.408379 167.868852,146.139162 167.589071,139.191257 C167.44918,135.367577 166.190164,131.543898 164.651366,127.95337 C165.117668,127.300546 165.537341,126.647723 166.003643,125.9949 C173.884153,114.477231 179.992714,101.840437 179.992714,101.840437 C179.992714,101.840437 180.552277,105.710747 182.464117,112.145719 C183.396721,115.409836 185.308561,118.953734 186.98725,122.404372 C179.573042,128.419672 175.003279,135.414208 173.37122,139.983971 C170.433515,148.470674 172.718397,152.294353 177.055009,153.180328 C179.013479,153.6 181.811293,152.667395 183.863024,151.781421 C186.474317,150.942077 189.551913,149.496539 192.489617,147.351548 C197.479053,143.66776 202.281967,138.538434 202.002186,131.590528 C201.862295,128.419672 201.022951,125.295446 199.857195,122.264481 C206.152277,119.653188 214.265938,118.20765 224.617851,119.420036 C246.813843,122.03133 251.197086,135.88051 250.357741,141.70929 C249.518397,147.538069 244.855373,150.708925 243.316576,151.68816 C241.777778,152.667395 241.264845,152.993807 241.404736,153.69326 C241.591257,154.719126 242.337341,154.672495 243.642987,154.485974 C245.461566,154.159563 255.300546,149.776321 255.720219,139.051366 C256.419672,125.342077 243.363206,110.37377 220.281239,110.513661 L220.281239,110.513661 Z M49.0550091,168.241894 C41.6874317,176.262295 31.4287796,179.29326 26.9989071,176.728597 C22.242623,173.977413 24.1078324,162.133333 33.1540984,153.64663 C38.6564663,148.470674 45.7442623,143.66776 50.4539162,140.730055 C51.5264117,140.077231 53.1118397,139.144627 55.0236794,137.978871 C55.3500911,137.79235 55.536612,137.699089 55.536612,137.699089 L55.536612,137.699089 C55.9096539,137.465938 56.2826958,137.232787 56.6557377,136.999636 C59.9664845,149.123497 56.7956284,159.801821 49.0550091,168.241894 L49.0550091,168.241894 Z M102.679781,131.777049 C100.115118,138.025501 94.7526412,154.019672 91.4885246,153.133698 C88.6907104,152.387614 86.9653916,140.263752 90.9289617,128.279781 C92.9340619,122.264481 97.1774135,115.083424 99.648816,112.28561 C103.659016,107.809107 108.088889,106.31694 109.161384,108.135519 C110.513661,110.513661 104.265209,127.860109 102.679781,131.777049 L102.679781,131.777049 Z M146.931876,152.947177 C145.859381,153.50674 144.833515,153.879781 144.367213,153.6 C144.040801,153.413479 144.833515,152.667395 144.833515,152.667395 C144.833515,152.667395 150.382514,146.698725 152.574135,143.994171 C153.833151,142.408743 155.325319,140.543534 156.910747,138.445173 L156.910747,139.051366 C156.910747,146.185792 150.009472,150.988707 146.931876,152.947177 L146.931876,152.947177 Z M181.065209,145.159927 C180.272495,144.600364 180.412386,142.735155 183.07031,136.906375 C184.096175,134.621494 186.520947,130.797814 190.671038,127.114026 C191.137341,128.606193 191.463752,130.05173 191.417122,131.404007 C191.370492,140.403643 184.935519,143.76102 181.065209,145.159927 L181.065209,145.159927 Z"
        ></path>
      </g>
    </svg>
  </symbol>

  <!-- Git -->
  <symbol id="git" viewBox="0 0 16 17">
    <svg width="16" height="17" viewBox="0 0 16 17" fill="none" xmlns="http://www.w3.org/2000/svg">
      <g clip-path="url(#clip0_1905_205)">
        <path d="M15.5921 7.93584L8.70263 1.04659C8.30613 0.649836 7.66263 0.649836 7.2655 1.04659L5.835 2.47734L7.64975 4.29209C8.07163 4.14971 8.55513 4.24521 8.89125 4.58134C9.22913 4.91959 9.32388 5.40721 9.178 5.83046L10.927 7.57959C11.3501 7.43371 11.8385 7.52796 12.1763 7.86646C12.6488 8.33859 12.6488 9.10396 12.1763 9.57634C12.064 9.68868 11.9306 9.77779 11.7839 9.83859C11.6372 9.89939 11.4799 9.93069 11.3211 9.93069C11.1622 9.93069 11.005 9.89939 10.8582 9.83859C10.7115 9.77779 10.5782 9.68868 10.4659 9.57634C10.2972 9.40753 10.1822 9.19259 10.1354 8.95858C10.0885 8.72457 10.112 8.48193 10.2028 8.26121L8.57175 6.63021L8.5715 10.9228C8.68984 10.9811 8.79788 11.0583 8.89138 11.1513C9.36363 11.6235 9.36363 12.3886 8.89138 12.8617C8.419 13.3338 7.65338 13.3338 7.1815 12.8617C6.70925 12.3887 6.70925 11.6236 7.1815 11.1513C7.29464 11.038 7.42922 10.9484 7.57738 10.8876V6.55521C7.4291 6.49461 7.29449 6.40488 7.1815 6.29134C6.82375 5.93384 6.73763 5.40884 6.92113 4.96934L5.132 3.18021L0.408002 7.90396C0.217416 8.09461 0.110352 8.35314 0.110352 8.62271C0.110352 8.89228 0.217416 9.15082 0.408002 9.34146L7.29763 16.2307C7.69438 16.6275 8.33763 16.6275 8.735 16.2307L15.5923 9.37346C15.7828 9.18276 15.8898 8.9242 15.8898 8.65462C15.8898 8.38504 15.7827 8.1265 15.5921 7.93584Z" fill="#F34F29"/>
      </g>
      <defs>
        <clipPath id="clip0_1905_205">
          <rect width="16" height="16" fill="white" transform="translate(0 0.638672)"/>
        </clipPath>
      </defs>
    </svg>
  </symbol>

  <!-- Golang -->
  <symbol id="golang" viewBox="0 0 256 348">
    <svg width="100%" height="100%" viewBox="0 0 256 348" version="1.1" xmlns="http://www.w3.org/2000/svg" xmlns:xlink="http://www.w3.org/1999/xlink" preserveAspectRatio="xMidYMid">
	    <g>
		    <path d="M3.68560311,188.164981 C4.18365759,198.424903 14.4435798,193.64358 19.0256809,190.456031 C23.4085603,187.368093 24.7035019,189.957977 25.1019455,183.981323 C25.4007782,179.996887 25.7992218,176.112062 25.6,172.127626 C18.92607,171.529961 11.7540856,173.123735 6.27548638,177.108171 C3.38677043,179.100389 -1.79299611,185.674708 3.68560311,188.164981" fill="#F6D2A2"></path>
		    <path d="M208.18677,314.272374 C216.056031,319.153307 230.499611,333.89572 218.645914,341.067704 C207.290272,351.427237 200.915175,329.612451 190.954086,326.624125 C195.237354,320.747082 200.616342,315.368093 208.18677,314.272374 L208.18677,314.272374 L208.18677,314.272374 Z" fill="#F6D2A2"></path>
		    <path d="M67.336965,330.907393 C58.0731518,332.301946 52.8933852,340.669261 45.1237354,344.952529 C37.8521401,349.235798 35.063035,343.557977 34.4653696,342.362646 C33.3696498,341.864591 33.4692607,342.8607 31.6762646,341.067704 C24.9027237,330.409339 38.6490272,322.639689 45.8210117,317.360311 C55.7821012,315.368093 62.0575875,324.034241 67.336965,330.907393 L67.336965,330.907393 L67.336965,330.907393 Z" fill="#F6D2A2"></path>
		    <path d="M251.915953,186.870039 C251.417899,197.129961 241.157977,192.348638 236.575875,189.161089 C232.192996,186.073152 230.898054,188.663035 230.499611,182.686381 C230.200778,178.701946 229.802335,174.817121 230.001556,170.832685 C236.675486,170.235019 243.847471,171.828794 249.32607,175.81323 C252.115175,177.805447 257.394553,184.379767 251.915953,186.870039" fill="#F6D2A2"></path>
		    <path d="M224.722179,61.7587549 C260.283268,49.2077821 232.491829,0.498054475 201.51284,22.0140078 C181.192218,4.58210117 153.201556,1.39455253 123.816342,1.39455253 C95.0287938,3.68560311 67.6357977,8.96498054 48.5105058,25.6996109 C17.6311284,5.77743191 -10.8575875,53.5906615 25.4007782,65.6435798 C15.2404669,105.089494 26.7953307,145.332296 25.2015564,185.475486 C23.707393,221.53463 14.244358,269.845914 34.2661479,302.219455 C51.2996109,329.911284 87.9564202,339.772763 118.138521,340.868482 C156.687938,342.263035 203.405447,332.8 222.132296,295.445914 C240.062257,259.884825 235.081712,215.557977 232.790661,177.207782 C230.499611,138.459144 234.782879,99.1128405 224.722179,61.7587549 L224.722179,61.7587549 Z" fill="#69D7E2"></path>
		    <path d="M254.605447,180.793774 C253.609339,178.701946 251.716732,176.311284 249.923735,175.016342 C245.341634,171.729183 239.464591,169.936187 233.388327,169.736965 C233.189105,163.561089 232.989883,156.787549 232.989883,148.221012 L232.989883,140.451362 C232.890272,115.947082 232.59144,105.189105 231.196887,91.7416342 C230.101167,81.1828794 228.407782,71.4210117 226.017121,62.2568093 C234.085603,59.1688716 239.364981,54.088716 241.456809,47.5143969 C243.449027,41.4381323 242.452918,34.5649805 239.066148,28.488716 C235.579767,22.5120623 230.001556,18.029572 223.526848,16.2365759 C216.554086,14.3439689 208.983658,15.7385214 201.712062,20.6194553 C195.237354,15.140856 187.766537,10.9571984 179.399222,7.76964981 C164.557198,2.29105058 147.324514,0.19922179 123.915953,0.19922179 L123.915953,1.19533074 L123.816342,0.19922179 C98.8140078,2.19143969 80.2863813,6.07626459 64.9463035,13.5470817 C58.770428,16.5354086 53.2918288,20.1214008 48.5105058,24.3050584 C41.1392996,19.7229572 33.4692607,18.6272374 26.3968872,20.818677 C19.8225681,22.8108949 14.1447471,27.492607 10.7579767,33.5688716 C7.37120623,39.6451362 6.57431907,46.6178988 8.86536965,52.5945525 C11.1564202,58.5712062 16.4357977,63.2529183 24.3050584,66.1416342 C21.814786,76.2023346 20.5198444,86.8607004 20.3206226,98.614786 C20.1214008,110.070039 20.6194553,119.234241 22.4124514,139.953307 C23.707393,155.392996 24.2054475,162.46537 24.4046693,171.031907 C17.6311284,170.733074 10.8575875,172.52607 5.77743191,176.211673 C3.9844358,177.506615 1.9922179,179.797665 1.09571984,181.989105 C-0.19922179,184.77821 0.298832685,187.268482 2.88871595,188.762646 C3.28715953,193.543969 5.9766537,195.735409 10.0607004,195.336965 C13.0490272,195.038132 16.6350195,193.444358 19.7229572,191.252918 C20.4202335,190.754864 21.1175097,190.35642 21.814786,190.057588 C22.1136187,189.957977 22.3128405,189.858366 22.6116732,189.758755 C22.6116732,189.758755 23.2093385,189.559533 23.4085603,189.459922 C23.707393,189.360311 24.0062257,189.2607 24.2054475,189.061479 C24.0062257,193.743191 23.6077821,198.624125 22.711284,209.780545 C21.7151751,222.331518 21.2171206,229.204669 21.0178988,236.874708 C20.1214008,265.363424 23.5081712,286.08249 33.6684825,302.518288 C36.8560311,307.698054 40.740856,312.280156 45.3229572,316.463813 C44.4264591,317.061479 40.6412451,319.850584 39.4459144,320.747082 C35.2622568,323.93463 32.3735409,326.624125 30.6801556,329.612451 C28.488716,333.497276 28.488716,337.382101 30.9789883,341.466148 L31.0785992,341.565759 L31.1782101,341.66537 C32.27393,342.761089 32.8715953,343.059922 33.6684825,343.059922 L33.7680934,343.059922 L33.9673152,343.059922 L33.9673152,343.059922 C34.0669261,343.259144 34.166537,343.358755 34.2661479,343.557977 C34.5649805,344.056031 34.8638132,344.454475 35.1626459,344.852918 C37.6529183,347.741634 41.1392996,348.438911 45.8210117,345.649805 C48.311284,344.354864 50.1042802,342.8607 53.8894942,339.673152 C53.9891051,339.573541 53.9891051,339.573541 54.088716,339.47393 C60.1649805,334.294163 63.1533074,332.401556 67.6357977,331.70428 L69.229572,331.405447 C69.8272374,331.70428 70.4249027,331.903502 71.122179,332.202335 C85.2669261,337.880156 101.702724,340.968093 118.337743,341.565759 C139.853696,342.362646 160.572763,339.673152 178.10428,333.298054 C182.785992,331.604669 187.168872,329.612451 191.352529,327.421012 C193.942412,328.417121 196.133852,330.508949 200.31751,335.389883 C200.516732,335.589105 200.516732,335.589105 200.616342,335.788327 C200.815564,335.987549 200.815564,336.08716 200.915175,336.18677 C201.114397,336.485603 201.41323,336.684825 201.612451,336.983658 C204.899611,340.868482 207.091051,342.761089 209.581323,343.856809 C212.868482,345.251362 216.056031,344.554086 219.343191,341.565759 C225.120623,337.979767 225.519066,332.401556 221.733852,326.026459 C219.044358,321.543969 214.362646,316.862257 209.979767,313.87393 C215.159533,308.793774 219.642023,302.71751 223.128405,295.844358 C232.691051,276.719066 236.376654,254.406226 236.177432,225.718288 C236.077821,215.557977 235.679377,206.692607 234.583658,189.758755 L234.583658,189.2607 C235.081712,189.459922 235.579767,189.758755 236.077821,190.157198 C239.165759,192.249027 242.751751,193.942412 245.740078,194.241245 C249.824125,194.639689 252.513619,192.448249 252.912062,187.666926 L252.912062,187.666926 C255.402335,186.073152 255.900389,183.582879 254.605447,180.793774 L254.605447,180.793774 Z M222.929183,18.3284047 C228.905837,19.922179 234.085603,24.1058366 237.273152,29.6840467 C240.4607,35.2622568 241.357198,41.5377432 239.564202,47.1159533 C237.671595,52.9929961 232.890272,57.6747082 225.419455,60.4638132 C223.925292,55.0848249 222.132296,49.8054475 220.140078,44.7252918 C223.028794,42.2350195 224.423346,39.1470817 222.132296,34.7642023 C219.841245,30.381323 215.856809,29.8832685 211.772763,31.1782101 C209.182879,27.7914397 206.294163,24.8031128 203.305837,22.0140078 C209.880156,17.8303502 216.653696,16.6350195 222.929183,18.3284047 L222.929183,18.3284047 Z M10.5587549,51.9968872 C8.46692607,46.6178988 9.16420233,40.2428016 12.351751,34.6645914 C15.5392996,29.0863813 20.7190661,24.7035019 26.8949416,22.9105058 C33.2700389,21.0178988 40.1431907,21.9143969 46.9167315,25.8988327 C43.0319066,29.385214 39.5455253,33.3696498 36.5571984,37.7525292 C31.3774319,35.063035 26.0980545,34.5649805 23.1097276,40.0435798 C20.0217899,45.9206226 23.6077821,49.6062257 28.6879377,52.3953307 C27.9906615,54.088716 27.2933852,55.8817121 26.6957198,57.6747082 C25.9984436,59.8661479 25.3011673,62.1571984 24.7035019,64.448249 C17.4319066,61.659144 12.6505837,57.3758755 10.5587549,51.9968872 L10.5587549,51.9968872 Z M22.6116732,187.766537 C22.5120623,187.766537 21.9143969,187.965759 21.9143969,188.06537 C21.6155642,188.164981 21.3167315,188.264591 21.0178988,188.463813 C20.2210117,188.762646 19.4241245,189.2607 18.6272374,189.858366 C15.8381323,191.850584 12.4513619,193.344747 9.8614786,193.543969 C6.87315175,193.842802 5.17976654,192.54786 4.88093385,188.961868 C6.97276265,188.264591 7.8692607,187.766537 8.66614786,186.571206 L7.07237354,185.375875 C6.47470817,186.172763 5.8770428,186.471595 4.08404669,187.069261 L4.08404669,187.069261 C3.9844358,187.069261 3.9844358,187.069261 3.8848249,187.168872 C2.29105058,186.272374 1.9922179,184.877821 2.88871595,182.885603 C3.68560311,181.092607 5.47859922,179.000778 6.97276265,177.905058 C11.7540856,174.418677 18.1291829,172.725292 24.5042802,173.123735 C24.5042802,175.614008 24.6038911,178.10428 24.5042802,180.494942 C24.5042802,180.793774 24.5042802,180.992996 24.4046693,181.291829 C24.3050584,182.686381 24.3050584,183.284047 24.2054475,183.981323 L24.2054475,183.981323 C23.9066148,186.870039 23.707393,187.268482 22.6116732,187.766537 L22.6116732,187.766537 Z M52.6941634,338.079377 C52.5945525,338.178988 52.5945525,338.178988 52.4949416,338.278599 C48.8093385,341.466148 47.0163424,342.761089 44.7252918,344.056031 C40.9400778,346.347082 38.3501946,345.849027 36.5571984,343.657588 C36.2583658,343.358755 36.059144,342.960311 35.8599222,342.661479 C35.7603113,342.561868 35.6607004,342.362646 35.5610895,342.263035 C35.5610895,342.263035 35.5610895,342.263035 35.5610895,342.163424 C35.7603113,340.370428 36.4575875,339.075486 38.2505837,336.286381 C38.3501946,336.18677 38.3501946,336.18677 38.3501946,336.08716 C39.4459144,334.493385 39.9439689,333.596887 40.4420233,332.501167 L38.6490272,331.70428 C38.2505837,332.600778 37.7525292,333.397665 36.7564202,334.99144 C36.6568093,335.091051 36.6568093,335.091051 36.6568093,335.190661 C34.8638132,337.780545 34.0669261,339.374319 33.6684825,341.167315 L33.5688716,341.167315 C33.5688716,341.167315 33.5688716,341.167315 33.4692607,341.167315 L33.2700389,341.167315 C33.0708171,341.067704 32.7719844,340.868482 32.3735409,340.470039 C28.488716,334.294163 31.5766537,329.014786 40.3424125,322.440467 C41.4381323,321.64358 45.1237354,319.053696 46.1198444,318.256809 C46.3190661,318.256809 46.5182879,318.157198 46.7175097,318.057588 C52.0964981,322.639689 58.3719844,326.624125 65.3447471,329.911284 L65.3447471,329.911284 C65.3447471,330.010895 65.444358,330.110506 65.5439689,330.210117 C61.4599222,331.206226 58.2723735,333.298054 52.6941634,338.079377 L52.6941634,338.079377 Z M219.940856,327.22179 C223.028794,332.401556 222.929183,336.585214 219.044358,339.47393 C218.745525,338.876265 218.546304,338.178988 218.14786,337.182879 C218.14786,337.083268 218.14786,337.083268 218.048249,336.983658 C216.653696,333.198444 215.757198,331.604669 214.063813,329.811673 L212.669261,331.206226 C214.163424,332.600778 214.8607,334.094942 216.255253,337.581323 C216.255253,337.680934 216.255253,337.680934 216.354864,337.780545 C216.852918,339.075486 217.151751,339.872374 217.450584,340.56965 C214.8607,342.761089 212.56965,343.159533 210.178988,342.063813 C208.08716,341.167315 206.094942,339.274708 202.907393,335.688716 C202.708171,335.489494 202.508949,335.190661 202.309728,334.891829 C202.210117,334.792218 202.110506,334.692607 202.010895,334.493385 C201.811673,334.294163 201.811673,334.294163 201.712062,334.094942 C198.026459,329.811673 195.835019,327.520623 193.444358,326.225681 C199.022568,323.038132 204.003113,319.45214 208.485603,315.268482 C212.669261,318.35642 217.350973,322.938521 219.940856,327.22179 L219.940856,327.22179 Z M221.335409,294.94786 C212.768872,312.180545 197.628016,324.333074 177.307393,331.70428 C159.975097,337.979767 139.455253,340.56965 118.238132,339.772763 C81.6809339,338.477821 50.0046693,325.727626 35.1626459,301.62179 C25.2015564,285.584436 21.9143969,265.164202 22.8108949,237.07393 C23.1097276,229.403891 23.5081712,222.530739 24.5042802,209.979767 C25.6,195.835019 25.8988327,191.750973 26.1976654,185.375875 C26.3968872,180.793774 26.3968872,176.112062 26.2972763,171.131518 C26.0980545,162.365759 25.6,155.392996 24.3050584,139.754086 C22.5120623,119.035019 22.0140078,109.970428 22.2132296,98.614786 C22.5120623,83.6731518 24.5042802,70.5245136 28.6879377,58.0731518 C35.4614786,37.8521401 47.9128405,24.2054475 65.8428016,15.3400778 C80.8840467,7.9688716 99.1128405,4.18365759 123.915953,2.19143969 C147.125292,2.19143969 164.059144,4.28326848 178.701946,9.66225681 C196.233463,16.136965 209.28249,27.492607 218.247471,44.9245136 C224.024903,59.0692607 227.411673,74.3097276 229.204669,91.8412451 C230.599222,105.189105 230.898054,115.947082 230.997665,140.351751 L230.997665,148.121401 C231.097276,160.174319 231.296498,168.641245 231.794553,177.108171 C231.993774,180.395331 232.093385,181.789883 232.59144,189.659144 C233.68716,206.592996 234.085603,215.358755 234.185214,225.519066 C234.384436,254.107393 230.798444,276.121401 221.335409,294.94786 L221.335409,294.94786 Z M251.816342,185.87393 L251.816342,185.87393 C251.716732,185.87393 251.617121,185.774319 251.51751,185.774319 C249.724514,185.176654 249.126848,184.77821 248.529183,184.080934 L246.935409,185.276265 C247.831907,186.471595 248.728405,186.96965 250.720623,187.666926 C250.322179,191.252918 248.628794,192.54786 245.740078,192.249027 C243.150195,192.049805 239.763424,190.456031 236.974319,188.563424 C236.177432,187.965759 235.380545,187.567315 234.583658,187.168872 C234.484047,187.168872 234.384436,187.069261 234.284825,187.069261 C233.886381,181.590661 233.886381,180.196109 233.68716,177.307393 C233.587549,175.514397 233.487938,173.721401 233.388327,171.928405 C238.966537,172.028016 244.445136,173.721401 248.628794,176.809339 C250.122957,177.905058 251.915953,179.996887 252.71284,181.789883 C253.708949,183.483268 253.509728,184.977432 251.816342,185.87393 L251.816342,185.87393 Z" fill="#000000"></path>
		    <g transform="translate(108.934905, 96.951015)">
			  <path d="M29.9828794,7.17198444 C30.0824903,12.2521401 31.0785992,17.8303502 30.1821012,23.2093385 C28.7875486,25.7992218 26.1976654,26.0980545 23.9066148,27.0941634 C20.7190661,26.5961089 18.029572,24.5042802 16.7346304,21.5159533 C15.9377432,15.4396887 16.9338521,9.66225681 17.2326848,3.58599222 C17.2326848,3.38677043 21.0178988,3.68560311 24.4046693,4.68171206 C27.2933852,5.57821012 29.9828794,7.07237354 29.9828794,7.17198444 L29.9828794,7.17198444 Z" fill="#FFFFFF"></path>
			  <path d="M1.79299611,7.57042802 C-0.996108949,18.1291829 5.47859922,35.3618677 16.136965,21.2171206 C15.3400778,15.2404669 16.2365759,9.46303502 16.5354086,3.58599222 C16.6350195,3.08793774 1.892607,6.87315175 1.79299611,7.57042802 L1.79299611,7.57042802 Z" fill="#FFFFFF"></path>
			  <path d="M31.1782101,11.8536965 C30.9789883,8.86536965 30.8793774,7.67003891 30.8793774,6.17587549 L30.8793774,5.47859922 L30.1821012,5.27937743 L17.6311284,1.39455253 L17.6311284,0.697276265 L16.3361868,0.996108949 L16.2365759,0.996108949 L16.2365759,1.09571984 L2.09182879,4.68171206 L1.59377432,4.78132296 L1.39455253,5.27937743 C-0.79688716,10.5587549 -0.298832685,18.5276265 2.49027237,23.4085603 C5.67782101,28.9867704 10.8575875,29.0863813 16.136965,22.711284 C17.6311284,25.6 20.4202335,27.5922179 23.6077821,28.0902724 L23.9066148,28.0902724 L24.2054475,27.9906615 C24.6038911,27.7914397 25.0023346,27.6918288 25.6996109,27.3929961 C25.7992218,27.3929961 25.7992218,27.3929961 25.8988327,27.2933852 C28.7875486,26.2972763 29.9828794,25.5003891 30.9789883,23.6077821 L31.0785992,23.5081712 L31.0785992,23.3089494 C31.3774319,21.5159533 31.4770428,19.6233463 31.4770428,17.5315175 C31.4770428,16.0373541 31.3774319,14.6428016 31.1782101,11.8536965 L31.1782101,11.8536965 Z M15.2404669,8.16809339 C15.140856,9.96108949 15.0412451,10.6583658 14.9416342,11.6544747 C14.7424125,15.3400778 14.7424125,18.1291829 15.0412451,20.9182879 C10.3595331,26.8949416 6.67392996,26.8949416 4.18365759,22.4124514 C1.79299611,18.2287938 1.29494163,11.1564202 3.08793774,6.47470817 L15.6389105,3.28715953 C15.5392996,4.58210117 15.4396887,5.8770428 15.2404669,8.16809339 L15.2404669,8.16809339 Z M29.1859922,22.9105058 C28.488716,24.1058366 27.5922179,24.7035019 25.2015564,25.5003891 C25.1019455,25.5003891 25.1019455,25.5003891 25.0023346,25.6 C24.4046693,25.7992218 24.0062257,25.9984436 23.707393,26.0980545 C21.0178988,25.6 18.7268482,23.8070039 17.6311284,21.3167315 C17.3322957,18.6272374 17.3322957,15.8381323 17.5315175,12.1525292 C17.6311284,11.1564202 17.6311284,10.459144 17.8303502,8.66614786 C18.029572,6.37509728 18.1291829,4.98054475 18.1291829,3.68560311 L28.9867704,6.97276265 C28.9867704,8.26770428 29.0863813,9.46303502 29.2856031,12.0529183 C29.4848249,14.7424125 29.5844358,16.136965 29.5844358,17.7307393 C29.5844358,19.6233463 29.4848249,21.3167315 29.1859922,22.9105058 L29.1859922,22.9105058 Z" fill="#000000"></path>
		  </g>
		  <g transform="translate(48.475508, 21.975564)">
			  <path d="M2.29105058,38.7486381 C11.4552529,74.4093385 68.5322957,65.2451362 66.340856,29.4848249 C63.7509728,-13.3478599 -6.47470817,-5.08015564 2.29105058,38.7486381" fill="#FFFFFF"></path>
			  <path d="M67.336965,29.385214 C66.7392996,19.0256809 62.1571984,10.9571984 54.5867704,5.8770428 C47.8132296,1.29494163 38.848249,-0.498054475 29.9828794,0.59766537 C21.1175097,1.79299611 12.9494163,5.77743191 7.57042802,12.0529183 C1.59377432,19.0256809 -0.697276265,28.1898833 1.39455253,38.7486381 L2.29105058,38.5494163 L1.39455253,38.7486381 C10.7579767,75.4054475 69.5284047,66.5400778 67.336965,29.385214 L67.336965,29.385214 Z M3.18754864,38.5494163 C1.19533074,28.488716 3.38677043,19.922179 8.96498054,13.4474708 C14.0451362,7.57042802 21.7151751,3.68560311 30.1821012,2.58988327 C38.6490272,1.49416342 47.1159533,3.18754864 53.4910506,7.57042802 C60.5634241,12.351751 64.8466926,19.8225681 65.444358,29.6840467 C67.5361868,64.448249 12.0529183,72.8155642 3.18754864,38.5494163 L3.18754864,38.5494163 Z" fill="#000000"></path>
			  <ellipse fill="#000000" cx="18.029572" cy="32.8715953" rx="9.66225681" ry="10.459144"></ellipse>
			  <ellipse fill="#FFFFFF" cx="22.4124514" cy="35.2622568" rx="2.29105058" ry="2.68949416"></ellipse>
		  </g>
		  <g transform="translate(129.617789, 18.097523)">
			  <path d="M1.19533074,35.9595331 C8.26770428,76.8996109 75.2062257,66.0420233 65.5439689,24.8031128 C56.877821,-12.2521401 -1.19533074,-1.9922179 1.19533074,35.9595331" fill="#FFFFFF"></path>
			  <path d="M66.4404669,24.6038911 C57.5750973,-13.5470817 -2.19143969,-3.08793774 0.19922179,36.059144 L0.19922179,36.1587549 C3.48638132,55.4832685 20.7190661,65.3447471 39.7447471,62.1571984 C48.4108949,60.663035 56.1805447,56.4793774 61.2607004,50.3035019 C66.8389105,43.4303502 68.8311284,34.5649805 66.4404669,24.6038911 L66.4404669,24.6038911 Z M59.766537,49.1081712 C54.985214,54.8856031 47.7136187,58.8700389 39.4459144,60.2645914 C21.4163424,63.2529183 5.27937743,53.9891051 2.09182879,35.8599222 C-0.0996108949,-0.996108949 56.2801556,-10.8575875 64.6474708,25.0023346 C66.8389105,34.4653696 65.0459144,42.7330739 59.766537,49.1081712 L59.766537,49.1081712 Z" fill="#000000"></path>
			  <ellipse fill="#000000" cx="17.6311284" cy="34.166537" rx="9.46303502" ry="10.459144"></ellipse>
			  <ellipse fill="#FFFFFF" cx="22.0140078" cy="36.5571984" rx="2.19143969" ry="2.68949416"></ellipse>
		  </g>
		  <g transform="translate(99.536375, 70.451072)">
			  <path d="M13.248249,12.5509728 C5.37898833,13.248249 -0.996108949,22.5120623 3.08793774,29.8832685 C8.46692607,39.6451362 20.5198444,28.9867704 27.9906615,29.9828794 C36.6568093,30.1821012 43.7291829,39.1470817 50.6023346,31.5766537 C58.2723735,23.2093385 47.3151751,15.0412451 38.6490272,11.4552529 L13.248249,12.5509728 L13.248249,12.5509728 Z" fill="#F6D2A2"></path>
			  <path d="M51.5984436,19.2249027 C48.9089494,15.8381323 44.2272374,12.7501946 39.1470817,10.6583658 L38.9478599,10.5587549 L38.7486381,10.5587549 L13.248249,11.5548638 C4.38287938,12.351751 -1.9922179,22.6116732 2.29105058,30.381323 C3.9844358,33.3696498 6.27548638,34.8638132 9.36342412,35.063035 C11.6544747,35.1626459 14.0451362,34.6645914 17.7307393,33.3696498 C18.029572,33.2700389 18.4280156,33.170428 18.92607,32.9712062 C23.9066148,31.277821 25.8988327,30.7797665 27.8910506,31.0785992 L27.9906615,31.0785992 C30.381323,31.0785992 32.3735409,31.7758755 36.1587549,33.2700389 C40.3424125,34.9634241 41.6373541,35.4614786 43.7291829,35.6607004 C46.6178988,35.8599222 49.1081712,34.8638132 51.3992218,32.3735409 C55.2840467,28.0902724 55.0848249,23.5081712 51.5984436,19.2249027 L51.5984436,19.2249027 Z M49.9050584,30.9789883 C48.0124514,33.0708171 46.1198444,33.7680934 43.8287938,33.6684825 C42.0357977,33.5688716 40.8404669,33.0708171 36.8560311,31.4770428 C32.8715953,29.7836576 30.6801556,29.1859922 28.0902724,29.0863813 C25.6,28.7875486 23.5081712,29.2856031 18.2287938,31.0785992 C17.7307393,31.277821 17.3322957,31.3774319 17.033463,31.4770428 C9.7618677,33.9673152 6.27548638,33.7680934 3.8848249,29.385214 C0.298832685,22.9105058 5.77743191,14.1447471 13.248249,13.4474708 L38.4498054,12.4513619 C43.2311284,14.4435798 47.5143969,17.3322957 50.0046693,20.4202335 C52.9929961,24.0062257 53.092607,27.5922179 49.9050584,30.9789883 L49.9050584,30.9789883 Z" fill="#231F20"></path>
			  <g transform="translate(11.953307, 0.000000)" fill="#000000">
				  <path d="M28.6879377,8.26770428 C25.6,-3.08793774 -0.298832685,-1.39455253 0.298832685,12.1525292 C1.59377432,22.2132296 31.6762646,19.5237354 28.6879377,8.26770428 L28.6879377,8.26770428 Z"></path>
			  </g>
		  </g>
	    </g>
    </svg>
  </symbol>

  <!-- Firebase -->
  <symbol id="firebase" viewBox="0 0 256 351">
    <svg width="100%" height="100%" viewBox="0 0 256 351" version="1.1" xmlns="http://www.w3.org/2000/svg" xmlns:xlink="http://www.w3.org/1999/xlink" preserveAspectRatio="xMidYMid">
      <defs>
        <path d="M1.25273437,280.731641 L2.85834533,277.600858 L102.211177,89.0833546 L58.0613266,5.6082033 C54.3920011,-1.28304578 45.0741245,0.473674398 43.8699203,8.18789086 L1.25273437,280.731641 Z" id="path-1"></path>
        <filter x="-50%" y="-50%" width="200%" height="200%" filterUnits="objectBoundingBox" id="filter-2">
            <feGaussianBlur stdDeviation="17.5" in="SourceAlpha" result="shadowBlurInner1"></feGaussianBlur>
            <feOffset dx="0" dy="0" in="shadowBlurInner1" result="shadowOffsetInner1"></feOffset>
            <feComposite in="shadowOffsetInner1" in2="SourceAlpha" operator="arithmetic" k2="-1" k3="1" result="shadowInnerInner1"></feComposite>
            <feColorMatrix values="0 0 0 0 0   0 0 0 0 0   0 0 0 0 0  0 0 0 0.06 0" type="matrix" in="shadowInnerInner1"></feColorMatrix>
        </filter>
        <path d="M134.417103,148.974235 L166.455722,116.161738 L134.417104,55.1546874 C131.374828,49.3635911 123.983911,48.7568362 120.973828,54.5646483 L103.26875,88.6738296 L102.739423,90.4175473 L134.417103,148.974235 Z" id="path-3"></path>
        <filter x="-50%" y="-50%" width="200%" height="200%" filterUnits="objectBoundingBox" id="filter-4">
            <feGaussianBlur stdDeviation="3.5" in="SourceAlpha" result="shadowBlurInner1"></feGaussianBlur>
            <feOffset dx="1" dy="-9" in="shadowBlurInner1" result="shadowOffsetInner1"></feOffset>
            <feComposite in="shadowOffsetInner1" in2="SourceAlpha" operator="arithmetic" k2="-1" k3="1" result="shadowInnerInner1"></feComposite>
            <feColorMatrix values="0 0 0 0 0   0 0 0 0 0   0 0 0 0 0  0 0 0 0.09 0" type="matrix" in="shadowInnerInner1"></feColorMatrix>
        </filter>
      </defs>
	    <g>
		  <path d="M0,282.99762 L2.12250746,280.0256 L102.527363,89.5119284 L102.739423,87.4951323 L58.478806,4.35817711 C54.7706269,-2.60604179 44.3313035,-0.845245771 43.1143483,6.95065473 L0,282.99762 Z" fill="#FFC24A"></path>
		  <g>
			  <use fill="#FFA712" fill-rule="evenodd" xlink:href="#path-1"></use>
			  <use fill="black" fill-opacity="1" filter="url(#filter-2)" xlink:href="#path-1"></use>
		  </g>
		  <path d="M135.004975,150.380704 L167.960199,116.629461 L134.995423,53.6993114 C131.866109,47.7425353 123.128817,47.7253411 120.032618,53.6993112 L102.421015,87.2880848 L102.421015,90.1487443 L135.004975,150.380704 Z" fill="#F4BD62"></path>
		  <g>
			  <use fill="#FFA50E" fill-rule="evenodd" xlink:href="#path-3"></use>
			  <use fill="black" fill-opacity="1" filter="url(#filter-4)" xlink:href="#path-3"></use>
		  </g>
		  <polygon fill="#F6820C" points="0 282.99762 0.962097168 282.030396 4.45771144 280.60956 132.935323 152.60956 134.563025 148.178595 102.513123 87.1048584"></polygon>
		  <path d="M139.120971,347.551268 L255.395916,282.703666 L222.191698,78.2093373 C221.153051,71.8112478 213.303658,69.2818149 208.724314,73.8694368 L0.000254726368,282.997875 L115.608454,347.545536 C122.914643,351.624979 131.812872,351.62689 139.120971,347.551268" fill="#FDE068"></path>
		  <path d="M254.354084,282.159837 L221.401937,79.2179369 C220.371175,72.8684188 213.843792,70.2409553 209.299213,74.79375 L1.28945312,282.600785 L115.627825,346.509458 C122.878548,350.557931 131.709226,350.559827 138.961846,346.515146 L254.354084,282.159837 Z" fill="#FCCA3F"></path>
		  <path d="M139.120907,345.64082 C131.812808,349.716442 122.914579,349.714531 115.60839,345.635089 L0.93134768,282.014551 L0.000191044776,282.997875 L115.60839,347.545536 C122.914579,351.624979 131.812808,351.62689 139.120907,347.551268 L255.395853,282.703666 L255.111196,280.951785 L139.120907,345.64082 Z" fill="#EEAB37"></path>
	    </g>
    </svg>
  </symbol>

  <!-- TODO: Networks -->

  <!-- Github -->
  <symbol id="github" viewBox="0 0 256 250">
    <svg width="100%" height="100%" viewBox="0 0 256 250" version="1.1" xmlns="http://www.w3.org/2000/svg" xmlns:xlink="http://www.w3.org/1999/xlink" preserveAspectRatio="xMidYMid" >
      <g>
          <path d="M128.00106,0 C57.3172926,0 0,57.3066942 0,128.00106 C0,184.555281 36.6761997,232.535542 87.534937,249.460899 C93.9320223,250.645779 96.280588,246.684165 96.280588,243.303333 C96.280588,240.251045 96.1618878,230.167899 96.106777,219.472176 C60.4967585,227.215235 52.9826207,204.369712 52.9826207,204.369712 C47.1599584,189.574598 38.770408,185.640538 38.770408,185.640538 C27.1568785,177.696113 39.6458206,177.859325 39.6458206,177.859325 C52.4993419,178.762293 59.267365,191.04987 59.267365,191.04987 C70.6837675,210.618423 89.2115753,204.961093 96.5158685,201.690482 C97.6647155,193.417512 100.981959,187.77078 104.642583,184.574357 C76.211799,181.33766 46.324819,170.362144 46.324819,121.315702 C46.324819,107.340889 51.3250588,95.9223682 59.5132437,86.9583937 C58.1842268,83.7344152 53.8029229,70.715562 60.7532354,53.0843636 C60.7532354,53.0843636 71.5019501,49.6441813 95.9626412,66.2049595 C106.172967,63.368876 117.123047,61.9465949 128.00106,61.8978432 C138.879073,61.9465949 149.837632,63.368876 160.067033,66.2049595 C184.49805,49.6441813 195.231926,53.0843636 195.231926,53.0843636 C202.199197,70.715562 197.815773,83.7344152 196.486756,86.9583937 C204.694018,95.9223682 209.660343,107.340889 209.660343,121.315702 C209.660343,170.478725 179.716133,181.303747 151.213281,184.472614 C155.80443,188.444828 159.895342,196.234518 159.895342,208.176593 C159.895342,225.303317 159.746968,239.087361 159.746968,243.303333 C159.746968,246.709601 162.05102,250.70089 168.53925,249.443941 C219.370432,232.499507 256,184.536204 256,128.00106 C256,57.3066942 198.691187,0 128.00106,0 Z M47.9405593,182.340212 C47.6586465,182.976105 46.6581745,183.166873 45.7467277,182.730227 C44.8183235,182.312656 44.2968914,181.445722 44.5978808,180.80771 C44.8734344,180.152739 45.876026,179.97045 46.8023103,180.409216 C47.7328342,180.826786 48.2627451,181.702199 47.9405593,182.340212 Z M54.2367892,187.958254 C53.6263318,188.524199 52.4329723,188.261363 51.6232682,187.366874 C50.7860088,186.474504 50.6291553,185.281144 51.2480912,184.70672 C51.8776254,184.140775 53.0349512,184.405731 53.8743302,185.298101 C54.7115892,186.201069 54.8748019,187.38595 54.2367892,187.958254 Z M58.5562413,195.146347 C57.7719732,195.691096 56.4895886,195.180261 55.6968417,194.042013 C54.9125733,192.903764 54.9125733,191.538713 55.713799,190.991845 C56.5086651,190.444977 57.7719732,190.936735 58.5753181,192.066505 C59.3574669,193.22383 59.3574669,194.58888 58.5562413,195.146347 Z M65.8613592,203.471174 C65.1597571,204.244846 63.6654083,204.03712 62.5716717,202.981538 C61.4524999,201.94927 61.1409122,200.484596 61.8446341,199.710926 C62.5547146,198.935137 64.0575422,199.15346 65.1597571,200.200564 C66.2704506,201.230712 66.6095936,202.705984 65.8613592,203.471174 Z M75.3025151,206.281542 C74.9930474,207.284134 73.553809,207.739857 72.1039724,207.313809 C70.6562556,206.875043 69.7087748,205.700761 70.0012857,204.687571 C70.302275,203.678621 71.7478721,203.20382 73.2083069,203.659543 C74.6539041,204.09619 75.6035048,205.261994 75.3025151,206.281542 Z M86.046947,207.473627 C86.0829806,208.529209 84.8535871,209.404622 83.3316829,209.4237 C81.8013,209.457614 80.563428,208.603398 80.5464708,207.564772 C80.5464708,206.498591 81.7483088,205.631657 83.2786917,205.606221 C84.8005962,205.576546 86.046947,206.424403 86.046947,207.473627 Z M96.6021471,207.069023 C96.7844366,208.099171 95.7267341,209.156872 94.215428,209.438785 C92.7295577,209.710099 91.3539086,209.074206 91.1652603,208.052538 C90.9808515,206.996955 92.0576306,205.939253 93.5413813,205.66582 C95.054807,205.402984 96.4092596,206.021919 96.6021471,207.069023 Z" fill="currentColor"></path>
      </g>
    </svg>
  </symbol>

  <!-- Twitter -->
  <symbol id="twitter" viewBox="0 0 256 209">
    <svg width="100%" height="100%" viewBox="0 0 256 209" version="1.1" xmlns="http://www.w3.org/2000/svg" xmlns:xlink="http://www.w3.org/1999/xlink" preserveAspectRatio="xMidYMid">
      <g>
        <path d="M256,25.4500259 C246.580841,29.6272672 236.458451,32.4504868 225.834156,33.7202333 C236.678503,27.2198053 245.00583,16.9269929 248.927437,4.66307685 C238.779765,10.6812633 227.539325,15.0523376 215.57599,17.408298 C205.994835,7.2006971 192.34506,0.822 177.239197,0.822 C148.232605,0.822 124.716076,24.3375931 124.716076,53.3423116 C124.716076,57.4586875 125.181462,61.4673784 126.076652,65.3112644 C82.4258385,63.1210453 43.7257252,42.211429 17.821398,10.4359288 C13.3005011,18.1929938 10.710443,27.2151234 10.710443,36.8402889 C10.710443,55.061526 19.9835254,71.1374907 34.0762135,80.5557137 C25.4660961,80.2832239 17.3681846,77.9207088 10.2862577,73.9869292 C10.2825122,74.2060448 10.2825122,74.4260967 10.2825122,74.647085 C10.2825122,100.094453 28.3867003,121.322443 52.413563,126.14673 C48.0059695,127.347184 43.3661509,127.988612 38.5755734,127.988612 C35.1914554,127.988612 31.9009766,127.659938 28.694773,127.046602 C35.3777973,147.913145 54.7742053,163.097665 77.7569918,163.52185 C59.7820257,177.607983 37.1354036,186.004604 12.5289147,186.004604 C8.28987161,186.004604 4.10888474,185.75646 0,185.271409 C23.2431033,200.173139 50.8507261,208.867532 80.5109185,208.867532 C177.116529,208.867532 229.943977,128.836982 229.943977,59.4326002 C229.943977,57.1552968 229.893412,54.8901664 229.792282,52.6381454 C240.053257,45.2331635 248.958338,35.9825545 256,25.4500259" fill="#55acee"></path>
      </g>
    </svg>
  </symbol>

  <!-- Linkedin -->
  <symbol id="linkedin" viewBox="0 0 256 256">
    <svg width="100%" height="100%" viewBox="0 0 256 256" version="1.1" xmlns="http://www.w3.org/2000/svg" xmlns:xlink="http://www.w3.org/1999/xlink" preserveAspectRatio="xMidYMid">
      <g>
        <path d="M218.123122,218.127392 L180.191928,218.127392 L180.191928,158.724263 C180.191928,144.559023 179.939053,126.323993 160.463756,126.323993 C140.707926,126.323993 137.685284,141.757585 137.685284,157.692986 L137.685284,218.123441 L99.7540894,218.123441 L99.7540894,95.9665207 L136.168036,95.9665207 L136.168036,112.660562 L136.677736,112.660562 C144.102746,99.9650027 157.908637,92.3824528 172.605689,92.9280076 C211.050535,92.9280076 218.138927,118.216023 218.138927,151.114151 L218.123122,218.127392 Z M56.9550587,79.2685282 C44.7981969,79.2707099 34.9413443,69.4171797 34.9391618,57.260052 C34.93698,45.1029244 44.7902948,35.2458562 56.9471566,35.2436736 C69.1040185,35.2414916 78.9608713,45.0950217 78.963054,57.2521493 C78.9641017,63.090208 76.6459976,68.6895714 72.5186979,72.8184433 C68.3913982,76.9473153 62.7929898,79.26748 56.9550587,79.2685282 M75.9206558,218.127392 L37.94995,218.127392 L37.94995,95.9665207 L75.9206558,95.9665207 L75.9206558,218.127392 Z M237.033403,0.0182577091 L18.8895249,0.0182577091 C8.57959469,-0.0980923971 0.124827038,8.16056231 -0.001,18.4706066 L-0.001,237.524091 C0.120519052,247.839103 8.57460631,256.105934 18.8895249,255.9977 L237.033403,255.9977 C247.368728,256.125818 255.855922,247.859464 255.999,237.524091 L255.999,18.4548016 C255.851624,8.12438979 247.363742,-0.133792868 237.033403,0.000790807055" fill="#0A66C2"></path>
      </g>
    </svg>
  </symbol>

  <!-- Twitch -->
  <symbol id="twitch" viewBox="0 0 256 268">
    <svg width="256px" height="268px" viewBox="0 0 256 268" version="1.1" xmlns="http://www.w3.org/2000/svg" xmlns:xlink="http://www.w3.org/1999/xlink" preserveAspectRatio="xMidYMid">
      <g>
        <path d="M17.4579119,0 L0,46.5559188 L0,232.757287 L63.9826001,232.757287 L63.9826001,267.690956 L98.9144853,267.690956 L133.811571,232.757287 L186.171922,232.757287 L256,162.954193 L256,0 L17.4579119,0 Z M40.7166868,23.2632364 L232.73141,23.2632364 L232.73141,151.29179 L191.992415,192.033461 L128,192.033461 L93.11273,226.918947 L93.11273,192.033461 L40.7166868,192.033461 L40.7166868,23.2632364 Z M104.724985,139.668381 L127.999822,139.668381 L127.999822,69.843872 L104.724985,69.843872 L104.724985,139.668381 Z M168.721862,139.668381 L191.992237,139.668381 L191.992237,69.843872 L168.721862,69.843872 L168.721862,139.668381 Z" fill="#5A3E85"></path>
      </g>
    </svg>
  </symbol>

  <!-- JavaScript -->
  <!-- <symbol id="javascript" viewBox="0 0 24 24">
  </symbol> -->

</svg>